# xmcd CD database file generated by LOLA_Freedb v0.9beta0
# 
# Track frame offsets:
#      150
#      13343
#      23686
#      39347
#      51763
#      73106
#      85324
#      95211
#      111593
#      122287
#      135305
#      151659
#      173048
#      185378
# 
# Disc length: 2679 seconds
# 
# Revision: 1 
# Processed by: cddbd v1.5.1PL2 Copyright (c) Steve Scherf et al.
# Submitted via: LOLA_Freedb v0.9beta0
# 
DISCID=b10a750e
DTITLE=Willy Willy and The Voodoo Band - Willy Willy and The Voodoo Band
DYEAR=2003
DGENRE=Blues
TTITLE0=Willy Willy and The Voodoo Band - Ms Hot Shot
TTITLE1=Willy Willy and The Voodoo Band - Let's Have A Party
TTITLE2=Willy Willy and The Voodoo Band - Walking The Dog
TTITLE3=Willy Willy and The Voodoo Band - Why Don't You Love Me
TTITLE4=Willy Willy and The Voodoo Band - Voodoowomanblues
TTITLE5=Willy Willy and The Voodoo Band - Daddy Rolling Stone
TTITLE6=Willy Willy and The Voodoo Band - Shake, Rattle and Roll
TTITLE7=Willy Willy and The Voodoo Band - 300 Lbs Of Joy
TTITLE8=Willy Willy and The Voodoo Band - Miss Lucy
TTITLE9=Willy Willy and The Voodoo Band - Shaking All Over
TTITLE10=Willy Willy and The Voodoo Band - Shot Of R&B
TTITLE11=Willy Willy and The Voodoo Band - Last Call For Alcohol
TTITLE12=Willy Willy and The Voodoo Band - The Blues Had A Baby
TTITLE13=Willy Willy and The Voodoo Band - Sincity
EXTD=
EXTT0=
EXTT1=
EXTT2=
EXTT3=
EXTT4=
EXTT5=
EXTT6=
EXTT7=
EXTT8=
EXTT9=
EXTT10=
EXTT11=
EXTT12=
EXTT13=
PLAYORDER=
